<svg width="52" height="52" viewBox="0 0 52 52" fill="none" xmlns="http://www.w3.org/2000/svg">
  <g filter="url(#encounter-glow)">
    <path d="M26 5.8C31.1 5.8 35.62 7.66 39.11 10.76" stroke="#FF6BA7" stroke-width="1.8" stroke-linecap="round" opacity="0.46" />
    <path d="M45.3 24.25C45.84 30.22 43.68 35.75 39.88 39.72" stroke="#FF3D7E" stroke-width="2.1" stroke-linecap="round" opacity="0.38" />
    <path d="M29.7 46.05C23.38 47.28 17.15 45.48 12.74 41.62" stroke="#FF87B9" stroke-width="1.45" stroke-linecap="round" opacity="0.31" />
    <path d="M6.7 29.55C5.72 23.45 7.56 17.58 11.5 13.31" stroke="#FFFFFF" stroke-width="1.1" stroke-linecap="round" opacity="0.28" />
    <path d="M16.4 8.85C18.02 7.92 19.75 7.25 21.57 6.86" stroke="#FFB4D2" stroke-width="1.1" stroke-linecap="round" opacity="0.34" />
  </g>
  <circle cx="26" cy="26" r="13" fill="#FF2D75" opacity="0.11" />
  <circle cx="26" cy="26" r="9.2" fill="#FF245F" opacity="0.14" />
  <circle cx="26" cy="26" r="5.4" fill="white" opacity="0.96" />
  <circle cx="26" cy="26" r="3.55" fill="#FF1E66" />
  <circle cx="24.8" cy="24.65" r="1.02" fill="#FFFFFF" opacity="0.86" />
  <circle cx="40.7" cy="14.7" r="1.3" fill="#FF88B7" opacity="0.68" />
  <circle cx="13.1" cy="34.5" r="1" fill="#FF5F99" opacity="0.52" />
  <circle cx="37.4" cy="37.2" r="0.85" fill="#FFC0D8" opacity="0.48" />
  <circle cx="14.9" cy="15.6" r="0.7" fill="#FFFFFF" opacity="0.46" />
  <path d="M36.8 18.2C37.82 17.44 38.94 16.87 40.15 16.5" stroke="#72F6FF" stroke-width="1.15" stroke-linecap="round" opacity="0.74" />
  <path d="M41.05 18.72C40.25 19.29 39.38 19.73 38.43 20.04" stroke="#58DFFF" stroke-width="1.05" stroke-linecap="round" opacity="0.58" />
  <defs>
    <filter id="encounter-glow" x="0" y="0" width="52" height="52" filterUnits="userSpaceOnUse" color-interpolation-filters="sRGB">
      <feDropShadow dx="0" dy="0" stdDeviation="1.75" flood-color="#FF2D75" flood-opacity="0.34" />
      <feDropShadow dx="0" dy="1" stdDeviation="1.2" flood-color="#000000" flood-opacity="0.2" />
    </filter>
  </defs>
</svg>
